Coordinates
version=1
nRows=14
nColumns=36
inDegrees=yes

Units are S.I. units (second, meters, Newtons, ...)
If the header above contains a line with 'inDegrees', this indicates whether rotational values are in degrees (yes) or radians (no).

endheader
time	pelvis_tilt	pelvis_list	pelvis_rotation	pelvis_tx	pelvis_ty	pelvis_tz	hip_flexion_r	hip_adduction_r	hip_rotation_r	knee_angle_r	knee_angle_r_beta	ankle_angle_r	subtalar_angle_r	mtp_angle_r	hip_flexion_l	hip_adduction_l	hip_rotation_l	knee_angle_l	knee_angle_l_beta	ankle_angle_l	subtalar_angle_l	mtp_angle_l	lumbar_extension	lumbar_bending	lumbar_rotation	arm_flex_r	arm_add_r	arm_rot_r	elbow_flex_r	pro_sup_r	arm_flex_l	arm_add_l	arm_rot_l	elbow_flex_l	pro_sup_l
      7.13333330	     -1.15885700	      4.24414041	      1.25225767	      0.33516057	      0.92940237	      0.09354196	      3.67849442	      2.78987734	     -4.33855499	     10.74605045	      0.18755396	      4.58165450	     -9.73424621	     -7.49999987	     25.65901833	     -1.04603622	      1.41917990	     54.17282602	      0.94549418	    -25.33278039	      0.68388744	     -7.49999987	     -0.54023680	     -2.52996481	     -7.32087112	     52.43719719	      9.03342831	     69.89166280	    132.43110063	     90.99335090	     40.47290566	     12.58838284	     70.77766900	    122.59695791	     69.07179484
      7.15000000	     -1.51709751	      4.09388408	      1.12234332	      0.33488664	      0.92967636	      0.09357365	      4.08453351	      2.93212203	     -4.13002971	     10.87259781	      0.18976263	      4.69082825	     -9.58711387	     -7.49999987	     25.82080782	     -1.09637774	      1.66060984	     53.67584545	      0.93682023	    -25.44529644	      0.69570260	     -7.49999987	      0.02441965	     -2.38267005	     -7.16149276	     52.11783357	      8.88995088	     69.84435884	    132.57376187	     89.89270199	     40.16186617	     12.57059165	     70.59252338	    122.41343583	     68.52057276
      7.16666670	     -1.38588212	      4.22198965	      1.17512163	      0.33562636	      0.93204237	      0.09337890	      3.76624569	      2.79243672	     -4.18734380	     10.69852010	      0.18672440	      4.67783593	     -9.39176137	     -7.49999987	     25.40114312	     -0.81811194	      1.76561194	     53.17100317	      0.92800907	    -26.43752038	     -0.49916274	     -7.49999987	     -0.16846612	     -2.44192672	     -7.29377604	     52.21508304	      8.88163783	     70.03614770	    132.28518966	     87.85155198	     40.20467042	     12.44051987	     70.60915828	    122.39552388	     68.36088441
      7.18333330	     -1.55187762	      4.23943084	      1.16296454	      0.33481816	      0.93023158	      0.09375017	      3.91071226	      2.78994704	     -3.82887491	     10.51730406	      0.18356158	      4.33280163	     -9.96527050	     -7.49999987	     25.37016556	     -0.70879182	      1.67474543	     52.78906231	      0.92134295	    -27.55380961	     -1.67853945	     -7.49999987	     -0.02735856	     -2.53866245	     -7.13499899	     52.00006443	      8.68412036	     69.61113554	    132.27233394	     93.41418385	     40.14484094	     12.52680180	     70.61230481	    122.20945030	     69.31755931
      7.20000000	     -1.72306608	      4.27294370	      1.32002420	      0.33554186	      0.93021534	      0.09381789	      4.00818073	      2.86894119	     -3.73736310	     10.33989580	      0.18046523	      4.49265457	     -9.74444505	     -7.49999987	     25.50780112	     -0.50498770	      1.58255436	     52.22718978	      0.91153642	    -28.53966396	     -2.82247703	     -7.49999987	      0.17802212	     -2.61283384	     -7.18568359	     51.87425411	      8.53491489	     69.59267954	    132.22533410	     91.88784116	     40.05840191	     12.51946174	     70.67656975	    122.20109872	     68.65785600
      7.21666670	     -1.80325431	      4.19309511	      1.57699767	      0.33510660	      0.93069076	      0.09379584	      4.08363165	      3.01426771	     -3.73699651	     10.34580873	      0.18056843	      4.56565622	     -9.63159310	     -7.49999987	     25.46575206	     -0.51929728	      1.10885701	     52.13029655	      0.90984531	    -29.89067834	     -5.01951825	     -7.49999987	      0.25902729	     -2.56204031	     -7.32287288	     51.80885181	      8.42059604	     69.52138459	    132.15073761	     91.20103561	     40.00542667	     12.52883977	     70.64464191	    122.29885650	     68.34590465
      7.23333330	     -1.70973156	      4.21003123	      1.38427965	      0.33586619	      0.93301212	      0.09393950	      3.97887594	      3.01783323	     -3.52621691	     10.42827569	      0.18200775	      4.55705687	     -9.49989831	     -7.49999987	     25.32283003	     -0.52842700	      0.82545263	     51.83946822	      0.90476940	    -31.76008633	     -6.29923934	     -7.49999987	      0.10761695	     -2.52852480	     -7.21129607	     51.80122222	      8.37435443	     69.63453805	    132.05628089	     90.49680641	     39.88598800	     12.49848373	     70.64759091	    122.34566811	     68.02792578
      7.25000000	     -2.06208462	      4.09569991	      1.18602616	      0.33560350	      0.93250396	      0.09396951	      4.29101845	      3.04028657	     -3.66364088	     10.51081843	      0.18344839	      4.28292202	     -9.30946856	     -7.49999987	     25.64856482	     -0.58887465	      0.77951275	     51.82946913	      0.90459489	    -31.78097370	     -6.35956906	     -7.49999987	      0.57291671	     -2.44345671	     -7.01668337	     51.37357472	      8.09181090	     69.59359747	    132.21718282	     89.23155829	     39.45233610	     12.26714620	     70.35005528	    122.29701996	     67.57738412
      7.26666670	     -1.52818877	      3.99877949	      0.87333823	      0.33548617	      0.93061023	      0.09435145	      4.03473116	      3.01066418	     -3.78683421	     11.19789477	      0.19544013	      3.77697596	    -10.37600460	     -7.49999987	     25.15483887	     -0.61310633	      0.85704489	     52.43664037	      0.91519202	    -31.44463108	     -7.35599135	     -7.49999987	     -0.30758547	     -2.18983914	     -7.05334563	     51.91046587	      8.40393831	     69.58464672	    131.72023732	     93.79338447	     39.67670223	     11.90677963	     69.75906066	    122.34792602	     69.93132426
      7.28333330	     -1.36276285	      3.96808844	      0.61982014	      0.33485730	      0.93112162	      0.09451609	      4.15410898	      2.96093600	     -3.65776543	     11.80181135	      0.20598047	      3.92782284	    -10.41454472	     -7.49999987	     25.14784201	     -0.59595905	      0.80361704	     53.04474195	      0.92580540	    -30.15084738	     -7.75380323	     -7.49999987	     -0.58446917	     -2.14980536	     -6.95781829	     52.07448427	      8.39485624	     69.57492000	    131.76332517	     92.34066376	     39.64184542	     11.64925451	     69.36497401	    122.22181893	     69.43591928
      7.30000000	     -1.51178426	      3.97429722	      0.22378425	      0.33498066	      0.92864416	      0.09494295	      4.52149550	      2.85813205	     -3.85493801	     12.17044173	      0.21241428	      4.14965229	    -10.19433668	     -7.49999987	     25.48674283	     -0.56677469	      0.60194064	     53.60921018	      0.93565723	    -28.06714734	     -7.66684211	     -7.49999987	     -0.39851323	     -2.16860895	     -6.65976400	     52.11229094	      8.46695225	     69.55056439	    131.98813790	     91.40381353	     39.46070911	     11.47256181	     68.93417838	    122.37157543	     69.13274985
      7.31666670	     -1.31357154	      3.99886316	     -0.10116884	      0.33390364	      0.92981103	      0.09520984	      4.58298496	      2.80300916	     -3.75924405	     12.36053646	      0.21573206	      4.26503149	    -10.03906333	     -7.49999987	     25.82624738	     -0.61322737	      0.49113682	     54.14658573	      0.94503620	    -25.42517782	     -6.16934111	     -7.49999987	     -0.78694186	     -2.19561645	     -6.45477320	     52.56780186	      8.70898484	     69.76425511	    131.98335641	     90.53794198	     39.54905645	     11.41284964	     68.84310876	    122.66854495	     68.86423116
      7.33333330	     -1.94146377	      3.84430254	     -0.40033116	      0.33425798	      0.92933417	      0.09528623	      5.48701455	      2.91171651	     -3.69912849	     12.62101415	      0.22027825	      4.38130644	     -9.61193369	     -7.49999987	     26.97409906	     -0.80413221	      0.54843332	     53.94233600	      0.94147137	    -24.16167410	     -5.22965784	     -7.49999987	      0.11134263	     -2.09029913	     -6.01350015	     52.39017774	      8.64172058	     69.46793474	    131.70027119	     88.90592379	     39.19218390	     11.53757272	     68.41450286	    121.87160548	     68.15306297
      7.35000000	     -1.30212205	      4.03320419	     -0.92330133	      0.33349052	      0.93095905	      0.09598535	      4.94420460	      2.65509779	     -4.10687795	     12.86144477	      0.22447456	      4.04312028	     -8.34653206	     -7.49999987	     26.45769082	     -0.89961600	      0.35034206	     52.74676617	      0.92060474	    -21.72703736	     -2.23608926	     -7.49999987	     -0.98189879	     -2.29701113	     -6.13092369	     52.69154115	      8.95448600	     69.85618296	    131.91913055	     93.15075237	     38.98751218	     10.99971990	     68.11603857	    122.88395919	     71.30313836
